<?xml version="1.0" encoding="utf-8"?>
<svg xmlns="http://www.w3.org/2000/svg" viewBox="0 0 48 48" width="144" height="144">
  <path d="M24 4C18.486 4 14 8.486 14 14C14 19.514 18.486 24 24 24C29.514 24 34 19.514 34 14C34 8.486 29.514 4 24 4 z M 41.498047 24C41.224047 24.001 40.946969 24.025172 40.667969 24.076172C39.783969 24.235172 38.939563 24.696156 38.226562 25.410156L26.427734 37.208984C26.070734 37.565984 25.807969 38.011141 25.667969 38.494141L24.097656 43.974609C24.025656 44.164609 23.993 44.365406 24 44.566406C24.013 44.929406 24.155594 45.288406 24.433594 45.566406C24.710594 45.843406 25.067688 45.986 25.429688 46C25.630688 46.007 25.834391 45.975344 26.025391 45.902344L31.505859 44.332031C31.988859 44.192031 32.431062 43.930266 32.789062 43.572266L44.589844 31.773438C45.303844 31.060437 45.764828 30.216031 45.923828 29.332031C45.973828 29.053031 45.997047 28.775953 45.998047 28.501953C46.001047 27.307953 45.540687 26.179312 44.679688 25.320312C43.820687 24.460313 42.692047 23.998 41.498047 24 z M 12.5 28C10.019 28 8 30.019 8 32.5L8 33.699219C8 39.048219 14.033734 43.317922 22.052734 43.919922C22.090734 43.696922 23.744141 37.943359 23.744141 37.943359C23.979141 37.130359 24.418625 36.387969 25.015625 35.792969L32.808594 28L12.5 28 z" fill="#5B5B5B" />
</svg>