<?xml version="1.0" encoding="utf-8"?>
<svg xmlns="http://www.w3.org/2000/svg" viewBox="0 0 30 30" width="480" height="480">
  <path d="M7 3C5.343 3 4 4.343 4 6L4 19 A 1.0001 1.0001 0 0 0 4.2949219 19.708984C4.6477556 20.972969 5.6303589 22 7 22L9 22L9 20L7 20C6.4349698 20 6 19.56503 6 19C6 18.542696 6.2910232 18.183861 6.6992188 18.058594L9 18.25L9 10C9 7.791 10.791 6 13 6L20 6L20 5C20 3.895 19.105 3 18 3L7 3 z M 14 8C12.343 8 11 9.343 11 11L11 24 A 1.0001 1.0001 0 0 0 11.294922 24.708984C11.647756 25.972969 12.630359 27 14 27L26 27 A 1.0001 1.0001 0 1 0 26 25L14 25C13.43497 25 13 24.56503 13 24C13 23.43497 13.43497 23 14 23L25 23C26.105 23 27 22.105 27 21L27 10C27 8.895 26.105 8 25 8L14 8 z M 16 12L22 12C22.552 12 23 12.448 23 13C23 13.552 22.552 14 22 14L16 14C15.448 14 15 13.552 15 13C15 12.448 15.448 12 16 12 z" fill="#5B5B5B" />
</svg>