<?xml version="1.0" encoding="utf-8"?>
<svg xmlns="http://www.w3.org/2000/svg" viewBox="0 0 64 64" width="512" height="512">
  <path d="M40 5C24 5 18 9 18 20L18 22.5L18 25L18 26.023438C17.592 26.666438 17 27.879 17 29.5C17 31.981 18.503656 33.697 19.222656 34.375C20.018656 36.442 21.406266 38.448172 22.947266 40.201172L22.605469 45.152344L5 52L5.4433594 54.658203C5.7643594 56.586203 7.4336719 58 9.3886719 58L29 58L31 50L25.515625 46.572266L25.761719 43.007812C27.856719 44.836813 29.778 46 30.5 46L33.5 46C34.222 46 36.143281 44.836813 38.238281 43.007812L38.484375 46.572266L33 50L35 58L40 58L40 54.035156L40.191406 54.021484L49 55L49 58L54.611328 58C56.566328 58 58.236594 56.586203 58.558594 54.658203L59 52L41.394531 45.152344L41.052734 40.201172C42.593734 38.447172 43.981344 36.442 44.777344 34.375C45.496344 33.697 47 31.981 47 29.5C47 27.879 46.408 26.666438 46 26.023438L46 26L46 22.5L46 20C46 16.5 45 11 42 11L40 5 z M 23 16C23 16 27.5 17 32 17C36.5 17 40 16 40 16C42.423124 18.076963 42.918085 22.504359 43 25.060547L43 26.5L43.005859 26.695312C43.003321 26.747877 43 27 43 27L43.013672 26.996094L43.015625 27.050781L43.349609 27.464844C43.376609 27.497844 44 28.277 44 29.5C44 31.179 42.59875 32.300688 42.59375 32.304688L42.232422 32.578125L42.082031 33.007812C40.325031 38.054812 34.512516 42.321 33.228516 43L30.769531 43C29.485531 42.321 23.673016 38.054812 21.916016 33.007812L21.767578 32.578125L21.40625 32.304688C21.39325 32.293687 20 31.191 20 29.5C20 28.277 20.623719 27.497469 20.636719 27.480469L21 27.058594L21 27L21 23.650391C21.107981 20.980824 21.532442 17.467558 23 16 z" fill="#5B5B5B" />
</svg>